# xmcd
#
# Track frame offsets:
#	150
#	13896
#	32231
#	49845
#	62907
#	80775
#	95492
#	110890
#	128905
#	150056
#	163448
#	184586
#	201657
#	220885
#	248972
#
# Disc length: 4207 seconds
#
# Revision: 2
# Processed by: cddbd v1.5.2PL0 Copyright (c) Steve Scherf et al.
# Submitted via: audiograbber 1.83.01
#
DISCID=e1106d0f
DTITLE=Brand, Adam - Get loud
DYEAR=2004
DGENRE=Country
TTITLE0=We're makin' up
TTITLE1=Infinity
TTITLE2=Get loud
TTITLE3=Number 34
TTITLE4=This time of year
TTITLE5=Food, water, shelter, love
TTITLE6=Eighteen
TTITLE7=Cowboy tequila
TTITLE8=Impossible to do
TTITLE9=Lifetime friends
TTITLE10=Just drive
TTITLE11=Senoritas
TTITLE12=Come on home
TTITLE13=She's country
TTITLE14=Documentary Video
EXTD=
EXTT0=
EXTT1=
EXTT2=
EXTT3=
EXTT4=
EXTT5=
EXTT6=
EXTT7=
EXTT8=
EXTT9=
EXTT10=
EXTT11=
EXTT12=
EXTT13=
EXTT14=
PLAYORDER=
